<svg xmlns="http://www.w3.org/2000/svg" xmlns:xlink="http://www.w3.org/1999/xlink" width="659" height="87.9" viewBox="0 0 659 87.9">
  <defs>
    <filter id="Path_203" x="0" y="0" width="659" height="87.9" filterUnits="userSpaceOnUse">
      <feOffset dx="1" dy="2" input="SourceAlpha"/>
      <feGaussianBlur stdDeviation="1.5" result="blur"/>
      <feFlood flood-opacity="0.161"/>
      <feComposite operator="in" in2="blur"/>
      <feComposite in="SourceGraphic"/>
    </filter>
  </defs>
  <g id="Group_361" data-name="Group 361" transform="translate(3.5 2.635)">
    <g transform="matrix(1, 0, 0, 1, -3.5, -2.63)" filter="url(#Path_203)">
      <g id="Path_203-2" data-name="Path 203" transform="translate(3.5 2.5)" fill="#fff">
        <path d="M 649.5 78.39951324462891 L 0.5 78.39951324462891 L 0.5 0.5000142455101013 L 649.5 0.5000142455101013 L 649.5 78.39951324462891 Z" stroke="none"/>
        <path d="M 1 1.000015258789062 L 1 77.89951324462891 L 649 77.89951324462891 L 649 1.000015258789062 L 1 1.000015258789062 M 0 1.52587890625e-05 L 650 1.52587890625e-05 L 650 78.89951324462891 L 0 78.89951324462891 L 0 1.52587890625e-05 Z" stroke="none" fill="#fe5a43"/>
      </g>
    </g>
    <g id="Group_372" data-name="Group 372" transform="translate(45.851 2)">
      <g id="Group_333" data-name="Group 333" transform="translate(249.161 27)">
        <text id="Add_to_basket" data-name="Add to basket" transform="translate(83 19)" fill="#fe5a43" font-size="25" font-family="Helvetica-Bold, Helvetica" font-weight="700"><tspan x="-82.648" y="0">Add to basket</tspan></text>
      </g>
      <g id="_3bf60143b9d2fbaf9c570eba8d00386e" data-name="3bf60143b9d2fbaf9c570eba8d00386e" transform="translate(156.148 16.865)">
        <g id="Group_334" data-name="Group 334">
          <path id="Path_235" data-name="Path 235" d="M153.026-481.683a2.219,2.219,0,0,0-1.11,1.12l-.109.328h-1.283a5.33,5.33,0,0,0-4.3,1.475,5.075,5.075,0,0,0-1.42,2.13c-.137.428-1.447,8.255-1.447,8.674,0,.064.282.1.91.1a6.924,6.924,0,0,0,.91-.027c0-.018.291-1.829.637-4.032.564-3.5.673-4.068.91-4.551a3.774,3.774,0,0,1,1.711-1.656c.482-.228.619-.246,1.93-.273l1.411-.027.228.483a1.956,1.956,0,0,0,.619.755l.4.273,5.952.027c4.059.018,6.08-.009,6.325-.073a1.952,1.952,0,0,0,1.138-1.092l.091-.319h1.447c1.411,0,1.475.009,1.975.255a3.718,3.718,0,0,1,1.7,1.638c.236.492.346,1.046.874,4.342.327,2.075.619,3.887.646,4.023l.055.255h.9a3.027,3.027,0,0,0,.9-.073c0-.355-1.32-8.21-1.456-8.665a5.753,5.753,0,0,0-2.384-2.94,5.519,5.519,0,0,0-3.122-.692l-1.538-.055-.091-.319a1.959,1.959,0,0,0-1.12-1.083C164.876-481.81,153.454-481.8,153.026-481.683Z" transform="translate(-137.444 481.775)" fill="#fe5a43"/>
          <path id="Path_236" data-name="Path 236" d="M11.957-130.453A2.655,2.655,0,0,0,10-127.877c0,.619,4.96,20.36,5.261,20.915a6.375,6.375,0,0,0,2.084,2.039c1.174.592.346.555,14.408.555,14.1,0,13.27.036,14.417-.574a5.913,5.913,0,0,0,2.093-2.093c.173-.355,1.065-3.732,2.757-10.512,2.3-9.183,2.494-10.029,2.449-10.548a2.625,2.625,0,0,0-1.556-2.23l-.455-.209-19.568-.018C16.289-130.562,12.248-130.544,11.957-130.453Zm5.525,6.29c.137.8.246,1.529.246,1.611.009.155-.137.164-1.811.164H14.1l-.091-.346c-.046-.182-.218-.846-.373-1.475s-.3-1.21-.328-1.3c-.046-.146.073-.155,1.93-.137l1.984.028Zm8.847-.892c.028.346.073,1.083.109,1.647l.055,1.019-3.44-.018-3.44-.028-.255-1.456c-.137-.8-.246-1.529-.246-1.62-.009-.146.218-.155,3.577-.155h3.586Zm9.028-.228c-.028.218-.073.956-.109,1.638l-.055,1.256h-6.88l-.055-1.119c-.036-.61-.082-1.347-.109-1.638l-.055-.519H35.4Zm9.038-.273c0,.063-.118.792-.246,1.62l-.246,1.5-3.45.028-3.44.018.055-1.2c.036-.665.082-1.4.109-1.647l.055-.428h3.586C43.63-125.666,44.4-125.638,44.395-125.556Zm5.8.045c-.028.091-.173.673-.327,1.3s-.328,1.292-.373,1.475l-.091.346H47.59c-1.393,0-1.82-.027-1.82-.118,0-.055.109-.792.246-1.638l.246-1.52h1.993C50.1-125.666,50.237-125.656,50.192-125.511ZM18.574-117.52c.282,1.747.519,3.213.528,3.249a7.143,7.143,0,0,1-1.483.073H16.144l-.8-3.213c-.437-1.757-.792-3.231-.792-3.277a12,12,0,0,1,1.747-.046l1.747.028Zm7.991-3.213c.018.236.364,6.344.364,6.416,0,.091-.655.118-2.985.118H20.967l-.528-3.167c-.282-1.739-.519-3.213-.519-3.277,0-.082.728-.109,3.322-.109C25.072-120.751,26.565-120.742,26.565-120.733Zm8.5.546c-.055.746-.31,5.433-.31,5.752v.236h-3c-2.8,0-3-.009-3-.164,0-.264-.264-4.933-.319-5.688l-.055-.7H35.11Zm8.5-.319c-.018.146-.264,1.62-.537,3.277l-.492,3.031H39.562c-2.967,0-2.985,0-2.985-.191,0-.355.273-5.224.327-5.8l.055-.564H43.6Zm5.388-.182c0,.046-.355,1.52-.792,3.277l-.8,3.213H45.887a5,5,0,0,1-1.483-.091c0-.137,1-6.207,1.046-6.353.028-.082.464-.109,1.775-.109A11.674,11.674,0,0,1,48.955-120.687ZM19.42-112.359c.028.118.209,1.229.409,2.485s.391,2.384.419,2.521l.055.255h-.592a1.941,1.941,0,0,1-1.074-.255c-.828-.437-.983-.728-1.529-2.894-.255-1.046-.492-1.993-.519-2.112l-.055-.2h1.42C19.347-112.56,19.374-112.56,19.42-112.359Zm7.6-.137c0,.046.064,1.092.137,2.348s.137,2.448.137,2.658v.391H22.132l-.455-2.73-.455-2.73h2.9C25.718-112.56,27.02-112.532,27.02-112.5Zm7.609.409c-.028.264-.1,1.493-.164,2.73l-.109,2.257H29.141l-.109-2.12c-.055-1.156-.127-2.384-.164-2.73l-.055-.61h5.87Zm7.591-.364c0,.064-.191,1.292-.428,2.73l-.437,2.621H36.212v-.482c0-.346.155-3.067.273-4.96,0-.009,1.292-.018,2.867-.018C41.582-112.56,42.219-112.532,42.219-112.45Zm4.733-.091c0,.018-.246.983-.537,2.157-.61,2.394-.71,2.594-1.556,3.031a1.879,1.879,0,0,1-1.056.255,1.7,1.7,0,0,1-.582-.055c0-.082.819-4.979.865-5.206.046-.2.073-.2,1.456-.2C46.315-112.56,46.952-112.55,46.952-112.541Z" transform="translate(-10 146.136)" fill="#fe5a43"/>
        </g>
      </g>
    </g>
  </g>
</svg>
