<svg xmlns="http://www.w3.org/2000/svg" width="94.041" height="75.422" viewBox="0 0 94.041 75.422">
  <g id="Group_380" data-name="Group 380" transform="translate(-427.479 1)">
    <g id="Group_331" data-name="Group 331" transform="translate(428.479)">
      <g id="delivery-2323" transform="translate(7.758 20.17)">
        <path id="layer2" d="M21.412,15h40.34c3.569,0,3.258,2.482,2.638,4.81s-5.741,23.118-5.741,23.118H74.32l6.206-3.1,6.051,3.1V55.34c0,2.017-.776,3.1-3.1,3.1H71.062M9,58.443H19.24m14.584,0H56.477" transform="translate(-2.794 -15)" fill="none" stroke="#fff" stroke-linecap="round" stroke-linejoin="round" stroke-miterlimit="10" stroke-width="3"/>
        <path id="layer2-2" data-name="layer2" d="M64.889,23h8.378l9.464,12.412M45.34,23H11.206M39.134,35.412H5" transform="translate(-5 -10.588)" fill="none" stroke="#fff" stroke-linecap="round" stroke-linejoin="round" stroke-miterlimit="10" stroke-width="3"/>
        <path id="layer1" d="M30.213,46.758a10.706,10.706,0,0,1-9.62,7.758c-4.189,0-6.516-3.413-5.275-7.758A10.706,10.706,0,0,1,24.938,39c4.034,0,6.516,3.413,5.275,7.758Zm37.237,0a10.706,10.706,0,0,1-9.62,7.758c-4.189,0-6.516-3.413-5.275-7.758A10.706,10.706,0,0,1,62.175,39C66.209,39,68.691,42.413,67.45,46.758Z" transform="translate(0.507 -1.763)" fill="none" stroke="#fff" stroke-linecap="round" stroke-linejoin="round" stroke-miterlimit="10" stroke-width="3"/>
      </g>
      <g id="Group_330" data-name="Group 330">
        <circle id="layer1-2" data-name="layer1" cx="13.188" cy="13.188" r="13.188" stroke-width="2" stroke="#fff" stroke-linecap="round" stroke-linejoin="round" stroke-miterlimit="10" fill="none"/>
        <path id="layer1-3" data-name="layer1" d="M46,12v8.243h6.594" transform="translate(-32.812 -5.406)" fill="none" stroke="#fff" stroke-linecap="round" stroke-linejoin="round" stroke-miterlimit="10" stroke-width="2"/>
      </g>
    </g>
  </g>
</svg>
