<svg xmlns="http://www.w3.org/2000/svg" xmlns:xlink="http://www.w3.org/1999/xlink" width="78" height="78" viewBox="0 0 78 78">
  <defs>
    <filter id="Rectangle_31" x="0" y="0" width="78" height="78" filterUnits="userSpaceOnUse">
      <feOffset dy="3" input="SourceAlpha"/>
      <feGaussianBlur stdDeviation="3" result="blur"/>
      <feFlood flood-opacity="0.161"/>
      <feComposite operator="in" in2="blur"/>
      <feComposite in="SourceGraphic"/>
    </filter>
  </defs>
  <g id="Group_28" data-name="Group 28" transform="translate(9 6)">
    <g transform="matrix(1, 0, 0, 1, -9, -6)" filter="url(#Rectangle_31)">
      <rect id="Rectangle_31-2" data-name="Rectangle 31" width="60" height="60" transform="translate(9 6)" fill="#475993"/>
    </g>
    <path id="facebook_9_" data-name="facebook (9)" d="M25.959,0H4.045A4.043,4.043,0,0,0,0,4.043V25.957A4.043,4.043,0,0,0,4.045,30H14.853l.018-10.72H12.086a.657.657,0,0,1-.657-.655l-.013-3.456a.657.657,0,0,1,.657-.66h2.78V11.171c0-3.875,2.367-5.985,5.823-5.985h2.836a.657.657,0,0,1,.657.657V8.757a.657.657,0,0,1-.657.657H21.772c-1.88,0-2.244.893-2.244,2.2V14.51h4.131a.657.657,0,0,1,.653.735L23.9,18.7a.657.657,0,0,1-.653.58h-3.7L19.528,30h6.431A4.042,4.042,0,0,0,30,25.958V4.043A4.043,4.043,0,0,0,25.959,0Z" transform="translate(14.998 15)" fill="#fff"/>
  </g>
</svg>
