<svg xmlns="http://www.w3.org/2000/svg" xmlns:xlink="http://www.w3.org/1999/xlink" width="78" height="78" viewBox="0 0 78 78">
  <defs>
    <filter id="Rectangle_31" x="0" y="0" width="78" height="78" filterUnits="userSpaceOnUse">
      <feOffset dy="3" input="SourceAlpha"/>
      <feGaussianBlur stdDeviation="3" result="blur"/>
      <feFlood flood-opacity="0.161"/>
      <feComposite operator="in" in2="blur"/>
      <feComposite in="SourceGraphic"/>
    </filter>
  </defs>
  <g id="Group_29" data-name="Group 29" transform="translate(9 6)">
    <g transform="matrix(1, 0, 0, 1, -9, -6)" filter="url(#Rectangle_31)">
      <rect id="Rectangle_31-2" data-name="Rectangle 31" width="60" height="60" transform="translate(9 6)" fill="#da483f"/>
    </g>
    <path id="G_" data-name="G+" d="M15.229,29.539A15.371,15.371,0,0,1,4.46,25.213a14.457,14.457,0,0,1,0-20.888A15.57,15.57,0,0,1,25.5,3.87L21.015,8.132a9.137,9.137,0,0,0-5.787-2.056,8.842,8.842,0,0,0-8.965,8.693,8.842,8.842,0,0,0,8.965,8.693,9.01,9.01,0,0,0,8.382-5.608H15.037V11.685H30.125A14.462,14.462,0,0,1,26,25.213,15.371,15.371,0,0,1,15.229,29.539ZM42.7,21.032H38.844V15.89h-5.3V12.151h5.3V7.01H42.7v5.142H48V15.89H42.7v5.141Z" transform="translate(6 15)" fill="#fff"/>
  </g>
</svg>
