<svg xmlns="http://www.w3.org/2000/svg" width="19.161" height="19.161" viewBox="0 0 19.161 19.161">
  <g id="Instagram" transform="translate(-0.001 0)">
    <path id="Path_3" data-name="Path 3" d="M9.581,1.7a29.376,29.376,0,0,1,3.832.106,4.937,4.937,0,0,1,1.81.319,3.738,3.738,0,0,1,1.81,1.81,4.937,4.937,0,0,1,.319,1.81c0,.958.106,1.277.106,3.832a29.376,29.376,0,0,1-.106,3.832,4.937,4.937,0,0,1-.319,1.81,3.738,3.738,0,0,1-1.81,1.81,4.937,4.937,0,0,1-1.81.319c-.958,0-1.277.106-3.832.106a29.376,29.376,0,0,1-3.832-.106,4.937,4.937,0,0,1-1.81-.319,3.738,3.738,0,0,1-1.81-1.81,4.937,4.937,0,0,1-.319-1.81c0-.958-.106-1.277-.106-3.832A29.376,29.376,0,0,1,1.81,5.748a4.937,4.937,0,0,1,.319-1.81,3.823,3.823,0,0,1,.745-1.065,1.8,1.8,0,0,1,1.065-.745,4.937,4.937,0,0,1,1.81-.319A29.376,29.376,0,0,1,9.581,1.7m0-1.7A31.453,31.453,0,0,0,5.642.106,6.572,6.572,0,0,0,3.3.532,4.167,4.167,0,0,0,1.6,1.6,4.167,4.167,0,0,0,.532,3.3,4.85,4.85,0,0,0,.106,5.642,31.453,31.453,0,0,0,0,9.581a31.453,31.453,0,0,0,.106,3.939,6.572,6.572,0,0,0,.426,2.342,4.167,4.167,0,0,0,1.065,1.7,4.167,4.167,0,0,0,1.7,1.064,6.572,6.572,0,0,0,2.342.426,31.453,31.453,0,0,0,3.939.106,31.453,31.453,0,0,0,3.939-.106,6.572,6.572,0,0,0,2.342-.426,4.466,4.466,0,0,0,2.768-2.768,6.572,6.572,0,0,0,.426-2.342c0-1.065.106-1.384.106-3.939a31.453,31.453,0,0,0-.106-3.939A6.572,6.572,0,0,0,18.629,3.3a4.167,4.167,0,0,0-1.064-1.7,4.167,4.167,0,0,0-1.7-1.065A6.572,6.572,0,0,0,13.519.106,31.453,31.453,0,0,0,9.581,0m0,4.684a4.818,4.818,0,0,0-4.9,4.9,4.9,4.9,0,1,0,4.9-4.9m0,8.09A3.136,3.136,0,0,1,6.387,9.581,3.137,3.137,0,0,1,9.581,6.387a3.136,3.136,0,0,1,3.194,3.194,3.136,3.136,0,0,1-3.194,3.194M14.69,3.3a1.171,1.171,0,1,0,1.171,1.171A1.181,1.181,0,0,0,14.69,3.3" fill="#ffba48" fill-rule="evenodd"/>
  </g>
</svg>
