<svg xmlns="http://www.w3.org/2000/svg" width="19.161" height="15.542" viewBox="0 0 19.161 15.542">
  <g id="Twitter" transform="translate(-0.001 0)">
    <path id="Path_2" data-name="Path 2" d="M44.068,17.542A11.078,11.078,0,0,0,55.245,6.364V5.832A8.653,8.653,0,0,0,57.161,3.81a8.836,8.836,0,0,1-2.235.639,4.142,4.142,0,0,0,1.7-2.129,9.764,9.764,0,0,1-2.448.958A3.8,3.8,0,0,0,51.306,2a4,4,0,0,0-3.939,3.939,2.075,2.075,0,0,0,.106.852,11.006,11.006,0,0,1-8.09-4.152,4.077,4.077,0,0,0-.532,2.023,4.229,4.229,0,0,0,1.7,3.3,3.589,3.589,0,0,1-1.81-.532h0a3.89,3.89,0,0,0,3.194,3.832,3.282,3.282,0,0,1-1.065.106,1.812,1.812,0,0,1-.745-.106,4.033,4.033,0,0,0,3.726,2.768,8.037,8.037,0,0,1-4.9,1.7A2.947,2.947,0,0,1,38,15.626a10.048,10.048,0,0,0,6.068,1.916" transform="translate(-38 -2)" fill="#ffba48" fill-rule="evenodd"/>
  </g>
</svg>
