<svg xmlns="http://www.w3.org/2000/svg" width="72.325" height="72.325" viewBox="0 0 72.325 72.325">
  <path id="food" d="M66.674,47.463H60.592c-.1-.54-.226-1.069-.362-1.6l10.846-5.422A2.261,2.261,0,1,0,69.054,36.4L58.707,41.573a24.828,24.828,0,0,0-46.975,5.89H5.65A5.657,5.657,0,0,0,0,53.113a4.525,4.525,0,0,0,1.141,3L9.041,65v1.67a5.657,5.657,0,0,0,5.65,5.65H57.634a5.655,5.655,0,0,0,5.65-5.65V65l7.9-8.887a4.516,4.516,0,0,0,1.144-3A5.655,5.655,0,0,0,66.674,47.463Zm-8.365,0h-1.27l1.126-.565c.043.19.1.373.145.565ZM36.162,29.382a22.611,22.611,0,0,1,20.527,13.2l-2.014,1.006a20.323,20.323,0,0,0-38.334,3.874H14.017A22.638,22.638,0,0,1,36.162,29.382ZM46.5,47.463a11.278,11.278,0,0,0-20.685,0H23.392a13.545,13.545,0,0,1,25.219-.843ZM36.162,45.2a6.746,6.746,0,0,0-5.018,2.26H28.378a8.96,8.96,0,0,1,15.566,0H41.175A6.728,6.728,0,0,0,36.162,45.2Zm0-9.041a15.841,15.841,0,0,0-15.154,11.3H18.676A18.054,18.054,0,0,1,52.65,44.6L50.632,45.61A15.846,15.846,0,0,0,36.162,36.162Zm22.6,27.122v3.39a1.132,1.132,0,0,1-1.13,1.13H14.691a1.13,1.13,0,0,1-1.13-1.13v-3.39L4.52,53.113a1.13,1.13,0,0,1,1.13-1.13H66.674a1.132,1.132,0,0,1,1.13,1.13ZM18.029,26.471c-.016-.032-.027-.061-.041-.095-1.173-2.832-.007-5.61,1.046-8.116,1-2.378,1.88-4.484.967-6.539,0-.009-.007-.018-.011-.027l-.007-.02a.029.029,0,0,1,0-.014,1.072,1.072,0,0,1-.072-.382,1.106,1.106,0,0,1,2.138-.4c1.261,2.873.115,5.7-.954,8.243-.99,2.355-1.795,4.543-.947,6.536a.077.077,0,0,1,0,.045,1.067,1.067,0,0,1,.041.283,1.137,1.137,0,0,1-1.135,1.137,1.125,1.125,0,0,1-1-.61h0C18.04,26.5,18.036,26.484,18.029,26.471Zm27.522-.33c-.014-.029-.025-.061-.036-.09-1.173-2.832-.009-5.612,1.042-8.118,1-2.378,1.88-4.484.967-6.539a.064.064,0,0,0-.009-.027c0-.007,0-.014-.009-.02v-.014a1.126,1.126,0,0,1-.075-.382,1.108,1.108,0,0,1,2.14-.4c1.261,2.873.115,5.7-.954,8.243-.99,2.355-1.792,4.543-.949,6.536a.053.053,0,0,1,0,.045,1.168,1.168,0,0,1,.041.283,1.134,1.134,0,0,1-2.14.524h0a.161.161,0,0,0-.018-.041ZM33.945,16.3c-.016-.032-.027-.061-.043-.093-1.175-2.832-.009-5.612,1.044-8.118,1-2.378,1.88-4.484.967-6.539,0-.009-.007-.018-.009-.027L35.9,1.5a.029.029,0,0,1,0-.014,1.072,1.072,0,0,1-.072-.382,1.107,1.107,0,0,1,2.14-.4c1.261,2.873.115,5.7-.954,8.243-.99,2.355-1.795,4.543-.947,6.536a.077.077,0,0,1,0,.045,1.066,1.066,0,0,1,.041.283,1.131,1.131,0,0,1-2.136.524h0C33.956,16.327,33.952,16.314,33.945,16.3Z" transform="translate(0 0)" fill="#fff"/>
</svg>
