<svg xmlns="http://www.w3.org/2000/svg" width="103.744" height="72.409" viewBox="0 0 103.744 72.409">
  <g id="Group_336" data-name="Group 336" transform="translate(0 0)">
    <path id="Path_239" data-name="Path 239" d="M60.295,219.834h6.585a22.873,22.873,0,0,1-2.244-2.414c-.3-.381-.561-.773-.826-1.164-.1-.148-.212-.286-.307-.423-.349-.529-.667-1.069-.963-1.62l-7.6,1.62v-46.4L70.076,166.2l17.7-3.779v19.362c.6.159,1.2.328,1.789.529s1.2.434,1.789.7c.455.2.91.4,1.355.635a22.618,22.618,0,0,1,3.568,2.361V166.2H91.355V158l-38.205,8.162L14.933,158v8.194H10v53.629H45.982v5.367H38.826v3.578h28.6V225.19H60.284l.011-5.357ZM18.511,166.2v-3.779l17.7,3.779,15.128,3.229v46.4l-32.828-7.008V166.2Zm40.736,11.37,23.544-7.781,1.122,3.4-23.544,7.781Zm-13.339,3.4-23.554-7.781,1.122-3.4,23.554,7.781Zm0,9.581-23.554-7.781,1.122-3.4,23.554,7.781ZM23.5,188.965l23.533,7.781-1.122,3.388-23.533-7.781Zm0,9.58,23.533,7.781-1.122,3.388-23.533-7.781Zm77.565,17.16-.265-.222-.572.688-2.2-1.842a18.835,18.835,0,0,0-1.757-23.851,16.49,16.49,0,0,0-1.715-1.726,20.274,20.274,0,0,0-1.863-1.3c-.445-.286-.889-.582-1.355-.826a19.47,19.47,0,0,0-1.789-.826,17,17,0,0,0-1.789-.625,19.354,19.354,0,0,0-5.5-.868,19.12,19.12,0,0,0-16.377,29.218c.339.54.667,1.09,1.059,1.6.307.4.656.783.985,1.164.106.127.243.243.371.371a19.973,19.973,0,0,0,1.63,1.651,19.194,19.194,0,0,0,22.443,1.556,19.335,19.335,0,0,0,3.4-2.7l.487.4,1.673,1.387-.572.688.265.222L110.3,230.409l3.44-4.118Zm-8.374-.656a16.027,16.027,0,0,1-1.471,1.217,15.342,15.342,0,0,1-17.954,0c-.243-.18-.508-.328-.752-.519-.085-.074-.2-.127-.286-.2a14.628,14.628,0,0,1-1.27-1.292,15.242,15.242,0,0,1-1.313-1.556,15.589,15.589,0,0,1,18.124-23.8,16.073,16.073,0,0,1,1.789.826,15.89,15.89,0,0,1,1.789,1.133c.307.222.635.4.932.646.159.138.275.3.423.423a15.631,15.631,0,0,1,5.145,10.163,15.439,15.439,0,0,1-1.567,8.257,15.733,15.733,0,0,1-2.011,3.176A15.289,15.289,0,0,1,92.689,215.049Z" transform="translate(-10 -158)" fill="#fff"/>
  </g>
</svg>
