<svg xmlns="http://www.w3.org/2000/svg" width="51.404" height="49.387" viewBox="0 0 51.404 49.387">
  <g id="_3bf60143b9d2fbaf9c570eba8d00386e" data-name="3bf60143b9d2fbaf9c570eba8d00386e" transform="translate(-0.001 0)">
    <g id="Group_334" data-name="Group 334">
      <path id="Path_235" data-name="Path 235" d="M154.789-481.666a2.624,2.624,0,0,0-1.313,1.324l-.129.388H151.83c-2.454,0-3.7.431-5.08,1.744a6,6,0,0,0-1.679,2.518c-.162.506-1.711,9.761-1.711,10.256,0,.076.334.119,1.076.119a8.18,8.18,0,0,0,1.076-.033c0-.022.345-2.163.753-4.767.667-4.143.8-4.81,1.076-5.381a4.463,4.463,0,0,1,2.023-1.959c.57-.269.732-.291,2.282-.323l1.668-.033.269.571a2.312,2.312,0,0,0,.732.893l.474.323,7.038.032c4.8.022,7.189-.01,7.479-.086a2.308,2.308,0,0,0,1.345-1.291l.108-.377h1.711c1.668,0,1.744.011,2.335.3a4.4,4.4,0,0,1,2.013,1.937c.28.581.409,1.237,1.033,5.134.387,2.454.732,4.6.764,4.757l.065.3h1.065a3.578,3.578,0,0,0,1.065-.086c0-.42-1.56-9.707-1.722-10.245a6.8,6.8,0,0,0-2.819-3.476,6.526,6.526,0,0,0-3.691-.818l-1.819-.065-.108-.377a2.317,2.317,0,0,0-1.324-1.281C168.8-481.816,155.295-481.805,154.789-481.666Z" transform="translate(-136.365 481.775)" fill="#fe5a43"/>
      <path id="Path_236" data-name="Path 236" d="M12.314-130.434A3.14,3.14,0,0,0,10-127.389c0,.732,5.865,24.074,6.22,24.73a7.538,7.538,0,0,0,2.464,2.411c1.388.7.409.656,17.036.656,16.67,0,15.69.043,17.046-.678a6.992,6.992,0,0,0,2.475-2.475c.2-.42,1.259-4.412,3.26-12.43,2.723-10.858,2.949-11.859,2.9-12.472a3.1,3.1,0,0,0-1.84-2.637l-.538-.248-23.138-.021C17.436-130.564,12.658-130.542,12.314-130.434ZM18.846-123c.162.947.291,1.808.291,1.9.011.183-.162.194-2.142.194H14.853l-.108-.409c-.054-.215-.258-1-.441-1.744s-.355-1.431-.388-1.538c-.054-.172.086-.183,2.282-.162l2.346.033Zm10.46-1.055c.033.409.086,1.28.129,1.948L29.5-120.9l-4.068-.022-4.068-.033-.3-1.722c-.162-.947-.291-1.808-.291-1.916-.011-.172.258-.183,4.229-.183h4.24Zm10.675-.269c-.033.258-.086,1.13-.129,1.937l-.065,1.485H31.653l-.065-1.323c-.043-.721-.1-1.593-.129-1.937l-.065-.613h8.642Zm10.687-.323c0,.075-.14.936-.291,1.916l-.291,1.776-4.079.033-4.068.021.065-1.42c.043-.786.1-1.658.129-1.948l.065-.506h4.24C49.764-124.774,50.679-124.741,50.669-124.644Zm6.855.054c-.033.108-.2.8-.387,1.539s-.388,1.528-.441,1.744l-.108.409H54.446c-1.647,0-2.152-.032-2.152-.14,0-.065.129-.936.291-1.937l.291-1.8h2.357C57.416-124.774,57.577-124.763,57.524-124.591Zm-37.386,9.449c.334,2.066.613,3.8.624,3.842a8.446,8.446,0,0,1-1.754.086H17.264l-.947-3.8c-.517-2.077-.936-3.82-.936-3.874a14.2,14.2,0,0,1,2.066-.054l2.066.033Zm9.448-3.8c.022.28.431,7.5.431,7.587,0,.108-.775.14-3.53.14H22.968l-.624-3.745c-.334-2.056-.613-3.8-.613-3.874,0-.1.861-.129,3.928-.129C27.822-118.962,29.586-118.951,29.586-118.941Zm10.052.646c-.065.882-.366,6.424-.366,6.8v.28H35.72c-3.315,0-3.552-.011-3.552-.194,0-.312-.312-5.833-.377-6.726l-.065-.829h7.963Zm10.052-.377c-.022.172-.312,1.916-.635,3.874l-.581,3.584H44.954c-3.508,0-3.53,0-3.53-.226,0-.42.323-6.177.387-6.855l.065-.667h7.856Zm6.371-.215c0,.054-.42,1.8-.936,3.874l-.947,3.8H52.434a5.911,5.911,0,0,1-1.754-.108c0-.162,1.184-7.339,1.237-7.512.033-.1.549-.129,2.1-.129A13.8,13.8,0,0,1,56.06-118.887ZM21.138-109.04c.033.14.248,1.453.484,2.938s.463,2.819.5,2.981l.065.3h-.7a2.3,2.3,0,0,1-1.27-.3c-.979-.517-1.162-.861-1.808-3.422-.3-1.237-.581-2.357-.613-2.5l-.065-.237h1.679C21.052-109.277,21.084-109.277,21.138-109.04Zm8.986-.162c0,.054.076,1.291.162,2.776s.162,2.895.162,3.142v.463h-6.1l-.538-3.228-.538-3.228H26.7C28.585-109.277,30.124-109.244,30.124-109.2Zm9,.484c-.033.312-.119,1.765-.194,3.228L38.8-102.82H32.632l-.129-2.507c-.065-1.367-.151-2.819-.194-3.229l-.065-.721h6.941Zm8.975-.43c0,.076-.226,1.528-.506,3.228l-.517,3.1h-6.08v-.57c0-.409.183-3.627.323-5.865,0-.011,1.528-.022,3.39-.022C47.343-109.277,48.1-109.244,48.1-109.147Zm5.6-.108c0,.022-.291,1.162-.635,2.55-.721,2.83-.839,3.067-1.84,3.584a2.222,2.222,0,0,1-1.248.3,2.011,2.011,0,0,1-.689-.065c0-.1.968-5.887,1.022-6.156.054-.237.086-.237,1.722-.237C52.939-109.277,53.692-109.266,53.692-109.255Z" transform="translate(-10 148.978)" fill="#fe5a43"/>
    </g>
  </g>
</svg>
